<svg xmlns="http://www.w3.org/2000/svg" width="166" height="29.959" viewBox="0 0 166 29.959" data-v-49fdd1b4=""><path d="M43.944 11.677h-4.069v-2.73h11.114v2.73h-4.068v10.726h-2.959V11.677zm11.977-2.73h2.959v5.3h5.464v-5.3h2.958v13.456h-2.958v-5.389h-5.46v5.389h-2.963zm17.419 0h2.959v13.456h-2.955zm9.017 0h6.147a5.419 5.419 0 013.928 1.356 4.192 4.192 0 011.145 3.082v.036a4.158 4.158 0 01-2.871 4.156l3.293 4.791h-3.455l-2.9-4.28h-2.345v4.315h-2.955V8.947zm5.936 6.53c1.444 0 2.272-.775 2.272-1.884v-.031c0-1.251-.863-1.92-2.343-1.92h-2.941v3.857h2.994zm10.638-6.53h5.249c4.227 0 7.133 2.906 7.133 6.675v.035c0 3.77-2.906 6.711-7.133 6.711h-5.249zm2.924 2.66v8.084h2.272a3.819 3.819 0 004.051-4.014v-.037a3.865 3.865 0 00-4.051-4.051h-2.272zm12.945-2.66h3.17l2.783 9.106 3.03-9.141h2.553l3.03 9.141 2.783-9.106h3.1l-4.58 13.544h-2.571l-3.083-8.806-3.029 8.792h-2.589zm28.18-.088h2.73l5.76 13.544h-3.082l-1.233-3.026h-5.689l-1.233 3.029h-3.047zm3.083 7.908l-1.8-4.35-1.8 4.35zm11.8.317l-5.143-8.137h3.452l3.206 5.39 3.258-5.39H166l-5.156 8.084v5.372h-2.959v-5.319zM14.989.105h-.863a.441.441 0 00-.212.036h-.211c-.053 0-.159.035-.211.035h-.212a.448.448 0 00-.211.035c-.053 0-.159.035-.211.035s-.159.036-.212.036-.158.035-.211.035-.159.035-.212.035a.919.919 0 00-.211.053.448.448 0 00-.211.035.968.968 0 01-.212.053c-.052.018-.158.035-.211.053s-.158.035-.211.053a.912.912 0 01-.212.052c-.052.018-.123.053-.211.088a.871.871 0 01-.211.053c-.053.018-.159.036-.212.053a.96.96 0 01-.211.053.919.919 0 01-.211.053 1.3 1.3 0 01-.212.088 1.281 1.281 0 01-.211.088 1.281 1.281 0 01-.211.088.968.968 0 01-.212.053l-.176.088c-.053.035-.158.053-.211.088l-.176.088a1.3 1.3 0 01-.212.088.538.538 0 00-.176.123l-.176.088-.176.089c-.053.035-.123.088-.176.123a.528.528 0 00-.176.123.542.542 0 00-.177.123c-.052.036-.123.088-.176.124s-.123.088-.176.123a.538.538 0 00-.176.123c-.053.036-.123.088-.176.124a.524.524 0 00-.176.123.717.717 0 00-.176.158c-.053.036-.124.088-.176.124s-.124.088-.177.123a.459.459 0 00-.158.158c-.053.053-.123.089-.159.159a1.556 1.556 0 00-.176.158c-.053.053-.123.089-.158.159-.053.053-.124.088-.159.159-.053.052-.123.088-.158.158-.053.053-.124.088-.159.159l-.158.158c-.053.053-.088.123-.159.159-.053.052-.088.123-.158.158l-.159.159c-.053.052-.123.088-.158.158-.053.053-.088.123-.159.159a1.556 1.556 0 01-.158.176 1.113 1.113 0 00-.124.176c-.052.053-.088.123-.158.158-.035.053-.088.124-.123.177a.764.764 0 01-.159.176c-.035.052-.088.123-.123.176a.7.7 0 01-.159.176c-.035.053-.088.123-.123.176s-.088.123-.123.176-.088.123-.124.176a.514.514 0 01-.123.176.542.542 0 01-.123.177c-.035.052-.088.123-.124.176l-.088.176c-.035.053-.088.123-.123.176l-.088.176a1.281 1.281 0 00-.088.211 1.3 1.3 0 00-.088.212c-.035.053-.088.123-.123.176a1.2 1.2 0 00-.088.211 1.214 1.214 0 00-.088.212 1.238 1.238 0 00-.089.211 1.375 1.375 0 00-.088.211.912.912 0 00-.052.212 1.238 1.238 0 00-.089.211 1.375 1.375 0 00-.088.211 1.392 1.392 0 00-.088.212.9.9 0 00-.052.215.87.87 0 00-.053.211.867.867 0 00-.053.212.96.96 0 00-.053.211.974.974 0 00-.053.211.475.475 0 00-.053.212.448.448 0 00-.035.211.968.968 0 00-.053.212c0 .052-.035.158-.035.211s-.038.154-.038.209a.452.452 0 01-.035.212c0 .052-.036.158-.036.211s-.035.158-.035.211a.452.452 0 01-.035.212c0 .053-.035.158-.035.211v.211c0 .053-.036.159-.036.212s-.035.158-.035.211v1.671c0 .053.035.159.035.212s.036.158.036.211v.423c0 .053.035.158.035.211s.035.159.035.211a.452.452 0 00.035.212.96.96 0 00.053.211.452.452 0 00.035.212.974.974 0 00.053.211.907.907 0 00.053.211.452.452 0 01.035.212.848.848 0 01.053.211.471.471 0 01.053.211.452.452 0 01.035.212 1.245 1.245 0 01.088.211.87.87 0 01.053.211.968.968 0 01.053.212.96.96 0 01.053.211 1.281 1.281 0 01.088.211c.035.053.053.159.088.212a.96.96 0 01.053.211c.017.053.053.123.088.211.035.053.053.159.088.212l.088.176c.035.053.053.158.088.211l.088.176.088.177a1.245 1.245 0 01.088.211l.088.176.088.176c.036.053.088.123.124.176a1.392 1.392 0 01.088.212c.035.052.088.123.123.176a.538.538 0 00.123.176.543.543 0 00.124.176c.035.053.088.123.123.176s.088.123.123.176.088.124.123.176.089.124.124.177.088.123.123.176.088.123.123.176a.723.723 0 00.159.176c.053.053.088.123.158.158l.159.159a1.043 1.043 0 01.123.176c.053.053.123.088.159.159.052.052.088.123.158.158a1.4 1.4 0 00.159.176.453.453 0 01.158.159c.053.053.088.123.159.158l.158.159.159.158a1.113 1.113 0 00.176.124l.158.158a1.049 1.049 0 00.177.123l.158.159a1.043 1.043 0 00.176.123.7.7 0 01.176.159c.053.035.124.088.176.123s.124.088.177.123.123.088.176.124.123.088.176.123.123.088.176.123.123.088.176.123a.543.543 0 01.176.124.539.539 0 01.176.123c.053.035.124.088.176.123l.177.088a.553.553 0 01.176.124 1.281 1.281 0 00.211.088c.053.035.123.088.176.123l.176.088a1.3 1.3 0 00.212.088 1.245 1.245 0 00.211.088 1.281 1.281 0 00.211.088.867.867 0 00.212.053c.053.018.123.053.211.088a1.281 1.281 0 00.211.088.475.475 0 00.212.053.471.471 0 00.211.053.474.474 0 00.211.053.968.968 0 00.212.053.957.957 0 00.211.052.867.867 0 00.212.053.9.9 0 00.211.053.96.96 0 00.211.053c.053.018.159.035.212.053a.9.9 0 00.211.035.96.96 0 00.211.053.915.915 0 01.212.053.45.45 0 01.211.035.907.907 0 01.211.053c.053 0 .159.035.212.035s.158.035.211.035.159.035.211.035.159.036.212.036.158.035.211.035h.211c.053 0 .159.035.212.035h1.462a.448.448 0 00.211-.035h.423c.053 0 .158-.035.211-.035h.211c.053 0 .159-.036.212-.036s.158-.035.211-.035.159-.035.211-.035.159-.035.212-.035a.448.448 0 00.211-.035.968.968 0 00.212-.053.974.974 0 00.211-.053c.053-.018.158 0 .211-.035a.462.462 0 01.212-.053.446.446 0 01.211-.035.458.458 0 01.211-.053.867.867 0 01.212-.053c.052-.018.158-.035.211-.053a1.281 1.281 0 01.211-.088.968.968 0 01.212-.053 1.281 1.281 0 01.211-.088.974.974 0 01.211-.053c.053-.017.124-.053.212-.088.053-.035.158-.053.211-.088a1.281 1.281 0 01.211-.088 1.3 1.3 0 01.212-.088 1.281 1.281 0 01.211-.088 1.26 1.26 0 01.212-.088l.176-.088a1.245 1.245 0 01.211-.088l.176-.088.176-.088.176-.088c.053-.036.124-.089.177-.124l.176-.088c.052-.035.123-.088.176-.123a.538.538 0 00.176-.123.543.543 0 00.176-.124c.053-.035.123-.088.176-.123s.123-.088.176-.123.124-.088.176-.124.124-.088.177-.123a.735.735 0 00.176-.158.742.742 0 00.176-.159 1.043 1.043 0 01.176-.123 1.4 1.4 0 00.176-.159l.159-.158.158-.159a1.475 1.475 0 00.176-.158l.159-.159.158-.158.159-.159c.053-.053.088-.123.158-.158.053-.053.124-.088.159-.159.053-.053.088-.123.158-.158a1.338 1.338 0 01.159-.176c.07-.053.088-.124.158-.177l.159-.158a1.043 1.043 0 00.123-.176c.035-.053.088-.123.123-.176s.088-.124.124-.176a.72.72 0 01.158-.177.549.549 0 01.123-.176c.036-.053.089-.123.124-.176s.088-.123.123-.176a.538.538 0 01.123-.176c.036-.053.088-.123.124-.176s.088-.124.123-.176a.528.528 0 01.123-.176l.088-.177.088-.176.088-.176c.036-.053.088-.123.124-.176a1.281 1.281 0 00.088-.211 1.3 1.3 0 00.088-.212 1.281 1.281 0 00.088-.211 1.281 1.281 0 00.088-.211 1.3 1.3 0 00.088-.212 1.281 1.281 0 00.088-.211.474.474 0 00.053-.211 1.3 1.3 0 00.088-.212.471.471 0 00.053-.211.968.968 0 00.053-.212 1.333 1.333 0 00.088-.211.471.471 0 00.053-.211.452.452 0 00.035-.212.468.468 0 00.053-.211.9.9 0 00.052-.211c.018-.053.036-.159.053-.212a.856.856 0 00.036-.211.45.45 0 00.035-.211.915.915 0 01.053-.212c0-.053.035-.158.035-.211s.035-.159.035-.211a.452.452 0 01.035-.212c0-.053.035-.158.035-.211s.036-.159.036-.212a.45.45 0 01.035-.211.448.448 0 01.035-.211v-.212c0-.052.035-.158.035-.211v-.211c0-.053.036-.159.036-.212V14.02a.441.441 0 00-.036-.212v-.282c0-.053-.035-.158-.035-.211s-.035-.159-.035-.211a.452.452 0 00-.035-.212c0-.053-.036-.158-.036-.211a.446.446 0 00-.035-.211.915.915 0 00-.048-.212.957.957 0 00-.054-.211c0-.053-.036-.159-.036-.212a.446.446 0 01-.035-.211.96.96 0 01-.053-.211.475.475 0 01-.053-.212.892.892 0 01-.052-.211.859.859 0 01-.053-.213.968.968 0 01-.053-.212c-.018-.052-.035-.158-.053-.211a.919.919 0 01-.053-.211 1.3 1.3 0 01-.088-.212.96.96 0 01-.053-.211 1.375 1.375 0 01-.088-.211.968.968 0 01-.053-.212c-.017-.053-.052-.123-.088-.211a1.375 1.375 0 01-.088-.211l-.088-.177a1.245 1.245 0 01-.088-.211l-.088-.176c-.035-.053-.053-.159-.088-.211l-.088-.177c-.035-.052-.088-.123-.123-.176l-.084-.17a.543.543 0 00-.124-.176.524.524 0 00-.123-.176c-.035-.053-.088-.123-.123-.176s-.088-.123-.123-.176a.533.533 0 00-.124-.176c-.035-.053-.088-.124-.123-.177s-.088-.123-.123-.176-.088-.123-.124-.176a.524.524 0 00-.123-.176.45.45 0 00-.158-.158c-.036-.053-.089-.124-.124-.177a1 1 0 01-.123-.176c-.053-.053-.088-.123-.159-.158-.052-.053-.123-.088-.158-.159a1.4 1.4 0 00-.159-.176c-.052-.053-.123-.088-.158-.158l-.159-.159a1.393 1.393 0 00-.158-.176c-.053-.053-.123-.088-.159-.159-.052-.052-.123-.088-.158-.158l-.159-.159c-.052-.052-.123-.088-.158-.158-.053-.053-.123-.088-.159-.159a1.393 1.393 0 01-.176-.158l-.165-.167a1.151 1.151 0 00-.176-.123.72.72 0 01-.177-.158c-.052-.036-.123-.088-.176-.124s-.123-.088-.176-.123-.123-.088-.176-.123-.123-.088-.176-.124-.123-.088-.176-.123-.123-.088-.176-.123-.124-.088-.176-.123-.124-.089-.177-.124l-.176-.088a.538.538 0 01-.176-.123c-.053-.035-.123-.088-.176-.123s-.123-.088-.176-.124a1.281 1.281 0 00-.211-.088l-.177-.088-.176-.088-.176-.088a1.281 1.281 0 00-.211-.088c-.053-.035-.159-.053-.212-.088a1.245 1.245 0 00-.211-.088 1.281 1.281 0 00-.211-.088.968.968 0 00-.212-.053c-.052-.018-.123-.053-.211-.088a.96.96 0 00-.211-.053.475.475 0 00-.212-.053.468.468 0 00-.211-.053.916.916 0 00-.211-.052.462.462 0 00-.212-.053.96.96 0 00-.211-.053.87.87 0 00-.211-.035.867.867 0 00-.212-.053 1.339 1.339 0 00-.3-.053c-.053 0-.159-.035-.212-.035s-.158-.035-.211-.035-.158-.036-.211-.036-.159-.035-.212-.035a.45.45 0 01-.211-.035c-.053 0-.158-.035-.211-.035a.441.441 0 01-.212-.036h-.211a.446.446 0 01-.211-.035h-.212c-.053 0-.158-.035-.211-.035a.446.446 0 01-.211-.035zm5.9 14.83c-.035.088-.053.088-.123.176l-.124.177-.123.176-.123.176-.124.176-.123.176-.123.176-.123.176-.124.177-.123.176-.123.176-.124.176-.123.176-.123.176c-.053.088-.088.088-.159.159l-.123.176-.123.176-.123.176-.124.176-.123.176-.123.176-.124.177-.123.176-.123.176-.124.176-.123.176-.123.18c-.053.088-.088.088-.159.159l-.123.176-.123.176-.123.176-.124.176-.123.176-.123.176-.124.177-.123.176-.123.176-.123.176-.124.176-.123.176-.123.176-.124.176-.123.177-.123.176-.124.176-.123.176-.123.176c-.053.088-.035.176-.123.176-.124 0-.053-.088-.124-.176l-.123-.176-.123-.176-.124-.176-.123-.176-.123-.177-.123-.176-.124-.176-.123-.176c-.176-.211-.176-.211-.247-.3l-.123-.176-.123-.177-.123-.176-.124-.176-.123-.176-.123-.176-.124-.176-.123-.176-.123-.176-.123-.177-.124-.176-.123-.176-.121-.182-.124-.176-.123-.176-.123-.176-.123-.176-.124-.177-.123-.176-.123-.176-.124-.176-.123-.176-.123-.176c-.123.035-.123.035-.176-.053l-.124-.176-.123-.176-.123-.176-.123-.177-.124-.176-.123-.176-.123-.176-.128-.173-.123-.176-.123-.176-.123-.176-.124-.177-.123-.176c-.053-.088-.088-.053-.123-.176-.036-.088 0-.123 0-.211v-.846c0-.123-.036-.123-.036-.211v-2.941c0-.124-.035-.124-.035-.212v-.634c0-.123.035-.123.035-.211V8.577c0-.088.036-.123.036-.211 0-.123-.036-.123-.036-.212 0-.123.036-.123.036-.211v-.4c0-.123-.036-.123-.036-.211V7.12c0-.088-.088-.176 0-.211s.088.053.159.158c.053-.052.053-.052.123 0a.347.347 0 01.159.159c.088.053.053.088.158.158a.347.347 0 01.159.159.341.341 0 01.158.159c.088.052.053.088.159.158a.341.341 0 01.158.159c.088.052.088.088.159.158l.176.123c.088.053.053.088.158.159l.177.123c.088.053.052.088.158.159s.053.088.159.158a.341.341 0 01.158.159.35.35 0 01.159.158c.088.053.053.088.158.159a.35.35 0 01.159.158c.088.053.053.088.158.159a.35.35 0 01.163.153.341.341 0 01.158.159.35.35 0 01.159.158.341.341 0 01.158.159c.088.053.053.088.159.158a.478.478 0 01.176.159.343.343 0 01.158.158c.088.053.053.088.159.159.088.053.053.088.176.123.088.035.123 0 .211 0h2.519c.123 0 .123.035.211 0s.088-.053.159-.158c.088-.053.053-.088.158-.159a.35.35 0 00.159-.158.341.341 0 00.158-.159c.089-.053.053-.088.159-.158a.343.343 0 00.158-.159c.089-.053.053-.088.159-.158a.35.35 0 00.159-.159.343.343 0 00.158-.158.347.347 0 00.159-.159c.088-.053.052-.088.158-.158a.347.347 0 00.159-.159c.088-.053.052-.088.158-.159a.34.34 0 00.159-.158.341.341 0 00.158-.159c.088-.052.088-.088.159-.158a.341.341 0 00.158-.159.34.34 0 00.159-.158.341.341 0 00.158-.159.34.34 0 00.159-.158.341.341 0 00.158-.159.34.34 0 00.159-.158.341.341 0 00.158-.159.35.35 0 00.159-.158c.088-.053.053-.088.158-.159a.35.35 0 00.159-.158.341.341 0 00.158-.159c.088-.053.053-.211.159-.158.088.035 0 .123 0 .211v3.769c0 .124-.035.124-.035.212v1.461c0 .124-.036.124-.036.212 0 .123.036.123.036.211 0 .123-.036.123-.036.212v.634c0 .123.036.123.036.211 0 .123-.036.123-.036.211v.212c0 .123-.035.123 0 .211.333.405.368.44.333.528z"></path></svg>